<svg xmlns="http://www.w3.org/2000/svg" style="isolation:isolate" viewBox="0 0 48 48">
  <defs/>
  <defs>
    <linearGradient id="d" x1="2.803" x2="14.575" y1="-14.013" y2="-2.241" gradientTransform="matrix(1.3547 0 0 1.1262 14.344 33.717)" gradientUnits="userSpaceOnUse">
      <stop offset="0" stop-color="#D65108"/>
      <stop offset="1" stop-color="#EFA00B"/>
    </linearGradient>
    <linearGradient id="b" x1="48" x2="0" y1="28" y2="52" gradientTransform="matrix(1 0 0 2 0 -52)" gradientUnits="userSpaceOnUse">
      <stop offset="0" stop-color="#70b68e"/>
      <stop offset="1" stop-color="#2d8754"/>
    </linearGradient>
    <clipPath id="a">
      <path d="M0 0h52v52H0z"/>
    </clipPath>
  </defs>
  <g clip-path="url(#a)" transform="translate(0 -4)">
    <path fill="url(#b)" d="M0 4h48v48H0z"/>
    <circle cx="24" cy="28" r="18" fill="#fff" vector-effect="non-scaling-stroke"/>
    <g clip-path="url(#c)" transform="matrix(.92 0 0 .92 -.026 5.401)">
      <path fill="url(#d)" stroke-width="1.235" d="M17.086 33.717h3.804v-9.709h3.063v-3.211H20.89v-.667c0-1.235.717-1.68 1.952-1.68.37 0 .815.05 1.235.124v-3.212a7.012 7.012 0 00-1.58-.173c-3.015 0-5.411 1.779-5.411 4.941v.667h-2.248v3.211h2.248zm12.969.222c1.828 0 2.816-.716 3.434-1.458h.099l.395 1.236h3.409V15.436h-3.804v6.595h-.1c-.617-.74-1.605-1.457-3.433-1.457-3.26 0-5.237 2.816-5.237 6.67 0 3.878 1.976 6.695 5.237 6.695zm1.161-3.335c-1.877 0-2.544-1.556-2.544-3.36 0-1.803.617-3.335 2.544-3.335s2.545 1.532 2.545 3.335c0 1.804-.667 3.36-2.545 3.36z" aria-label="fd"/>
    </g>
    <defs>
      <clipPath id="c">
        <path d="M0 0h26v27.236H0z" transform="translate(13 12.382)"/>
      </clipPath>
    </defs>
  </g>
</svg>
